<svg xmlns="http://www.w3.org/2000/svg" viewBox="3 0 65 82">
  <path fill="#0047BA" d="M15.78,40H5.47a5.61,5.61,0,0,1,0-11.21H15.78a5.61,5.61,0,0,1,0,11.21Z"/>
  <path fill="#0047BA" d="M34.13,21.64A5.61,5.61,0,0,1,28.52,16V5.72a5.61,5.61,0,0,1,11.22,0V16A5.61,5.61,0,0,1,34.13,21.64Z"/>
  <path fill="#0047BA" d="M9.29,64.82a5.54,5.54,0,0,1-4-1.64,5.6,5.6,0,0,1,0-7.93L17.25,43.37a5.61,5.61,0,0,1,7.93,7.94L13.25,63.18A5.55,5.55,0,0,1,9.29,64.82Z"/>
  <path fill="#0047BA" d="M47,27.1a5.61,5.61,0,0,1-4-9.57L55,5.65a5.61,5.61,0,0,1,7.93,7.93L51,25.46A5.62,5.62,0,0,1,47,27.1Z"/>
  <path fill="#0047BA" d="M26.77,21.35a5.61,5.61,0,0,1-9.57,4L5.33,13.4a5.61,5.61,0,0,1,7.93-7.93L25.13,17.39A5.57,5.57,0,0,1,26.77,21.35Z"/>
  <path fill="#F6323E" d="M34.13,47.12a5.61,5.61,0,0,0-5.61,5.61V75.89a5.61,5.61,0,0,0,11.22,0V52.73A5.61,5.61,0,0,0,34.13,47.12Z"/>
  <path fill="#F6323E" d="M34.13,27.3a7.09,7.09,0,1,0,7.09,7.08A7.08,7.08,0,0,0,34.13,27.3Z"/>
</svg>
